<mxfile host="app.diagrams.net" modified="2023-07-28T17:35:09.705Z" agent="Mozilla/5.0 (Windows NT 10.0; Win64; x64) AppleWebKit/537.36 (KHTML, like Gecko) Chrome/115.0.0.0 Safari/537.36" etag="7z6uoALFfhAQ6Z2sKe41" version="21.6.6" type="github">
  <diagram id="C5RBs43oDa-KdzZeNtuy" name="Page-1">
    <mxGraphModel dx="2577" dy="943" grid="1" gridSize="10" guides="1" tooltips="1" connect="1" arrows="1" fold="1" page="1" pageScale="1" pageWidth="827" pageHeight="1169" math="0" shadow="0">
      <root>
        <mxCell id="WIyWlLk6GJQsqaUBKTNV-0" />
        <mxCell id="WIyWlLk6GJQsqaUBKTNV-1" parent="WIyWlLk6GJQsqaUBKTNV-0" />
        <mxCell id="XbP6ayfyLxGD-Mf_w_qg-0" value="Utilisateur" style="swimlane;fontStyle=1;align=center;verticalAlign=top;childLayout=stackLayout;horizontal=1;startSize=26;horizontalStack=0;resizeParent=1;resizeParentMax=0;resizeLast=0;collapsible=1;marginBottom=0;whiteSpace=wrap;html=1;" vertex="1" parent="WIyWlLk6GJQsqaUBKTNV-1">
          <mxGeometry x="10" y="130" width="160" height="134" as="geometry" />
        </mxCell>
        <mxCell id="XbP6ayfyLxGD-Mf_w_qg-1" value="+ id_utilisateur&lt;br&gt;+&amp;nbsp;" style="text;strokeColor=none;fillColor=none;align=left;verticalAlign=top;spacingLeft=4;spacingRight=4;overflow=hidden;rotatable=0;points=[[0,0.5],[1,0.5]];portConstraint=eastwest;whiteSpace=wrap;html=1;" vertex="1" parent="XbP6ayfyLxGD-Mf_w_qg-0">
          <mxGeometry y="26" width="160" height="74" as="geometry" />
        </mxCell>
        <mxCell id="XbP6ayfyLxGD-Mf_w_qg-2" value="" style="line;strokeWidth=1;fillColor=none;align=left;verticalAlign=middle;spacingTop=-1;spacingLeft=3;spacingRight=3;rotatable=0;labelPosition=right;points=[];portConstraint=eastwest;strokeColor=inherit;" vertex="1" parent="XbP6ayfyLxGD-Mf_w_qg-0">
          <mxGeometry y="100" width="160" height="8" as="geometry" />
        </mxCell>
        <mxCell id="XbP6ayfyLxGD-Mf_w_qg-3" value="+ method(type): type" style="text;strokeColor=none;fillColor=none;align=left;verticalAlign=top;spacingLeft=4;spacingRight=4;overflow=hidden;rotatable=0;points=[[0,0.5],[1,0.5]];portConstraint=eastwest;whiteSpace=wrap;html=1;" vertex="1" parent="XbP6ayfyLxGD-Mf_w_qg-0">
          <mxGeometry y="108" width="160" height="26" as="geometry" />
        </mxCell>
        <mxCell id="XbP6ayfyLxGD-Mf_w_qg-4" value="Rendez-Vous" style="swimlane;fontStyle=1;align=center;verticalAlign=top;childLayout=stackLayout;horizontal=1;startSize=26;horizontalStack=0;resizeParent=1;resizeParentMax=0;resizeLast=0;collapsible=1;marginBottom=0;whiteSpace=wrap;html=1;" vertex="1" parent="WIyWlLk6GJQsqaUBKTNV-1">
          <mxGeometry x="760" y="420" width="160" height="104" as="geometry" />
        </mxCell>
        <mxCell id="XbP6ayfyLxGD-Mf_w_qg-5" value="+ id_rendez-vous:numeric&lt;br&gt;+&amp;nbsp;" style="text;strokeColor=none;fillColor=none;align=left;verticalAlign=top;spacingLeft=4;spacingRight=4;overflow=hidden;rotatable=0;points=[[0,0.5],[1,0.5]];portConstraint=eastwest;whiteSpace=wrap;html=1;" vertex="1" parent="XbP6ayfyLxGD-Mf_w_qg-4">
          <mxGeometry y="26" width="160" height="44" as="geometry" />
        </mxCell>
        <mxCell id="XbP6ayfyLxGD-Mf_w_qg-6" value="" style="line;strokeWidth=1;fillColor=none;align=left;verticalAlign=middle;spacingTop=-1;spacingLeft=3;spacingRight=3;rotatable=0;labelPosition=right;points=[];portConstraint=eastwest;strokeColor=inherit;" vertex="1" parent="XbP6ayfyLxGD-Mf_w_qg-4">
          <mxGeometry y="70" width="160" height="8" as="geometry" />
        </mxCell>
        <mxCell id="XbP6ayfyLxGD-Mf_w_qg-7" value="+ method(type): type" style="text;strokeColor=none;fillColor=none;align=left;verticalAlign=top;spacingLeft=4;spacingRight=4;overflow=hidden;rotatable=0;points=[[0,0.5],[1,0.5]];portConstraint=eastwest;whiteSpace=wrap;html=1;" vertex="1" parent="XbP6ayfyLxGD-Mf_w_qg-4">
          <mxGeometry y="78" width="160" height="26" as="geometry" />
        </mxCell>
        <mxCell id="XbP6ayfyLxGD-Mf_w_qg-8" value="Facture" style="swimlane;fontStyle=1;align=center;verticalAlign=top;childLayout=stackLayout;horizontal=1;startSize=26;horizontalStack=0;resizeParent=1;resizeParentMax=0;resizeLast=0;collapsible=1;marginBottom=0;whiteSpace=wrap;html=1;" vertex="1" parent="WIyWlLk6GJQsqaUBKTNV-1">
          <mxGeometry x="620" y="727" width="160" height="86" as="geometry" />
        </mxCell>
        <mxCell id="XbP6ayfyLxGD-Mf_w_qg-9" value="+ field: type" style="text;strokeColor=none;fillColor=none;align=left;verticalAlign=top;spacingLeft=4;spacingRight=4;overflow=hidden;rotatable=0;points=[[0,0.5],[1,0.5]];portConstraint=eastwest;whiteSpace=wrap;html=1;" vertex="1" parent="XbP6ayfyLxGD-Mf_w_qg-8">
          <mxGeometry y="26" width="160" height="26" as="geometry" />
        </mxCell>
        <mxCell id="XbP6ayfyLxGD-Mf_w_qg-10" value="" style="line;strokeWidth=1;fillColor=none;align=left;verticalAlign=middle;spacingTop=-1;spacingLeft=3;spacingRight=3;rotatable=0;labelPosition=right;points=[];portConstraint=eastwest;strokeColor=inherit;" vertex="1" parent="XbP6ayfyLxGD-Mf_w_qg-8">
          <mxGeometry y="52" width="160" height="8" as="geometry" />
        </mxCell>
        <mxCell id="XbP6ayfyLxGD-Mf_w_qg-11" value="+ method(type): type" style="text;strokeColor=none;fillColor=none;align=left;verticalAlign=top;spacingLeft=4;spacingRight=4;overflow=hidden;rotatable=0;points=[[0,0.5],[1,0.5]];portConstraint=eastwest;whiteSpace=wrap;html=1;" vertex="1" parent="XbP6ayfyLxGD-Mf_w_qg-8">
          <mxGeometry y="60" width="160" height="26" as="geometry" />
        </mxCell>
        <mxCell id="XbP6ayfyLxGD-Mf_w_qg-12" value="Consultation" style="swimlane;fontStyle=1;align=center;verticalAlign=top;childLayout=stackLayout;horizontal=1;startSize=26;horizontalStack=0;resizeParent=1;resizeParentMax=0;resizeLast=0;collapsible=1;marginBottom=0;whiteSpace=wrap;html=1;" vertex="1" parent="WIyWlLk6GJQsqaUBKTNV-1">
          <mxGeometry x="-420" y="320" width="160" height="124" as="geometry" />
        </mxCell>
        <mxCell id="XbP6ayfyLxGD-Mf_w_qg-13" value="+ id_Consultation:string&lt;br&gt;+ allergie&lt;br&gt;+ traitement&lt;br&gt;+ historique" style="text;strokeColor=none;fillColor=none;align=left;verticalAlign=top;spacingLeft=4;spacingRight=4;overflow=hidden;rotatable=0;points=[[0,0.5],[1,0.5]];portConstraint=eastwest;whiteSpace=wrap;html=1;" vertex="1" parent="XbP6ayfyLxGD-Mf_w_qg-12">
          <mxGeometry y="26" width="160" height="64" as="geometry" />
        </mxCell>
        <mxCell id="XbP6ayfyLxGD-Mf_w_qg-14" value="" style="line;strokeWidth=1;fillColor=none;align=left;verticalAlign=middle;spacingTop=-1;spacingLeft=3;spacingRight=3;rotatable=0;labelPosition=right;points=[];portConstraint=eastwest;strokeColor=inherit;" vertex="1" parent="XbP6ayfyLxGD-Mf_w_qg-12">
          <mxGeometry y="90" width="160" height="8" as="geometry" />
        </mxCell>
        <mxCell id="XbP6ayfyLxGD-Mf_w_qg-15" value="+ method(type): type" style="text;strokeColor=none;fillColor=none;align=left;verticalAlign=top;spacingLeft=4;spacingRight=4;overflow=hidden;rotatable=0;points=[[0,0.5],[1,0.5]];portConstraint=eastwest;whiteSpace=wrap;html=1;" vertex="1" parent="XbP6ayfyLxGD-Mf_w_qg-12">
          <mxGeometry y="98" width="160" height="26" as="geometry" />
        </mxCell>
        <mxCell id="XbP6ayfyLxGD-Mf_w_qg-16" value="Dossier Medical" style="swimlane;fontStyle=1;align=center;verticalAlign=top;childLayout=stackLayout;horizontal=1;startSize=26;horizontalStack=0;resizeParent=1;resizeParentMax=0;resizeLast=0;collapsible=1;marginBottom=0;whiteSpace=wrap;html=1;" vertex="1" parent="WIyWlLk6GJQsqaUBKTNV-1">
          <mxGeometry x="300" y="240" width="160" height="114" as="geometry" />
        </mxCell>
        <mxCell id="XbP6ayfyLxGD-Mf_w_qg-17" value="+ id_Dossier&lt;br&gt;+&amp;nbsp;" style="text;strokeColor=none;fillColor=none;align=left;verticalAlign=top;spacingLeft=4;spacingRight=4;overflow=hidden;rotatable=0;points=[[0,0.5],[1,0.5]];portConstraint=eastwest;whiteSpace=wrap;html=1;" vertex="1" parent="XbP6ayfyLxGD-Mf_w_qg-16">
          <mxGeometry y="26" width="160" height="54" as="geometry" />
        </mxCell>
        <mxCell id="XbP6ayfyLxGD-Mf_w_qg-18" value="" style="line;strokeWidth=1;fillColor=none;align=left;verticalAlign=middle;spacingTop=-1;spacingLeft=3;spacingRight=3;rotatable=0;labelPosition=right;points=[];portConstraint=eastwest;strokeColor=inherit;" vertex="1" parent="XbP6ayfyLxGD-Mf_w_qg-16">
          <mxGeometry y="80" width="160" height="8" as="geometry" />
        </mxCell>
        <mxCell id="XbP6ayfyLxGD-Mf_w_qg-19" value="+ method(type): type" style="text;strokeColor=none;fillColor=none;align=left;verticalAlign=top;spacingLeft=4;spacingRight=4;overflow=hidden;rotatable=0;points=[[0,0.5],[1,0.5]];portConstraint=eastwest;whiteSpace=wrap;html=1;" vertex="1" parent="XbP6ayfyLxGD-Mf_w_qg-16">
          <mxGeometry y="88" width="160" height="26" as="geometry" />
        </mxCell>
        <mxCell id="XbP6ayfyLxGD-Mf_w_qg-20" value="Patient" style="swimlane;fontStyle=1;align=center;verticalAlign=top;childLayout=stackLayout;horizontal=1;startSize=26;horizontalStack=0;resizeParent=1;resizeParentMax=0;resizeLast=0;collapsible=1;marginBottom=0;whiteSpace=wrap;html=1;" vertex="1" parent="WIyWlLk6GJQsqaUBKTNV-1">
          <mxGeometry x="540" y="260" width="160" height="144" as="geometry" />
        </mxCell>
        <mxCell id="XbP6ayfyLxGD-Mf_w_qg-21" value="+ Num_patient:numeric&lt;br&gt;+ nom_patient:string&lt;br&gt;+ Prenom_patient:string&lt;br&gt;+ adresse&lt;br&gt;+ numero_de_telephone" style="text;strokeColor=none;fillColor=none;align=left;verticalAlign=top;spacingLeft=4;spacingRight=4;overflow=hidden;rotatable=0;points=[[0,0.5],[1,0.5]];portConstraint=eastwest;whiteSpace=wrap;html=1;" vertex="1" parent="XbP6ayfyLxGD-Mf_w_qg-20">
          <mxGeometry y="26" width="160" height="84" as="geometry" />
        </mxCell>
        <mxCell id="XbP6ayfyLxGD-Mf_w_qg-22" value="" style="line;strokeWidth=1;fillColor=none;align=left;verticalAlign=middle;spacingTop=-1;spacingLeft=3;spacingRight=3;rotatable=0;labelPosition=right;points=[];portConstraint=eastwest;strokeColor=inherit;" vertex="1" parent="XbP6ayfyLxGD-Mf_w_qg-20">
          <mxGeometry y="110" width="160" height="8" as="geometry" />
        </mxCell>
        <mxCell id="XbP6ayfyLxGD-Mf_w_qg-23" value="+ method(type): type" style="text;strokeColor=none;fillColor=none;align=left;verticalAlign=top;spacingLeft=4;spacingRight=4;overflow=hidden;rotatable=0;points=[[0,0.5],[1,0.5]];portConstraint=eastwest;whiteSpace=wrap;html=1;" vertex="1" parent="XbP6ayfyLxGD-Mf_w_qg-20">
          <mxGeometry y="118" width="160" height="26" as="geometry" />
        </mxCell>
        <mxCell id="XbP6ayfyLxGD-Mf_w_qg-24" value="Medecin" style="swimlane;fontStyle=1;align=center;verticalAlign=top;childLayout=stackLayout;horizontal=1;startSize=26;horizontalStack=0;resizeParent=1;resizeParentMax=0;resizeLast=0;collapsible=1;marginBottom=0;whiteSpace=wrap;html=1;" vertex="1" parent="WIyWlLk6GJQsqaUBKTNV-1">
          <mxGeometry x="-140" y="471" width="160" height="174" as="geometry" />
        </mxCell>
        <mxCell id="XbP6ayfyLxGD-Mf_w_qg-25" value="+ num_medecin:numeric&lt;br&gt;+ nom:string&amp;nbsp;&lt;br&gt;+ prenom:string&lt;br&gt;+ notes&lt;br&gt;+ commentaires&lt;br&gt;+ observation&lt;br&gt;+ recommendation" style="text;strokeColor=none;fillColor=none;align=left;verticalAlign=top;spacingLeft=4;spacingRight=4;overflow=hidden;rotatable=0;points=[[0,0.5],[1,0.5]];portConstraint=eastwest;whiteSpace=wrap;html=1;" vertex="1" parent="XbP6ayfyLxGD-Mf_w_qg-24">
          <mxGeometry y="26" width="160" height="114" as="geometry" />
        </mxCell>
        <mxCell id="XbP6ayfyLxGD-Mf_w_qg-26" value="" style="line;strokeWidth=1;fillColor=none;align=left;verticalAlign=middle;spacingTop=-1;spacingLeft=3;spacingRight=3;rotatable=0;labelPosition=right;points=[];portConstraint=eastwest;strokeColor=inherit;" vertex="1" parent="XbP6ayfyLxGD-Mf_w_qg-24">
          <mxGeometry y="140" width="160" height="8" as="geometry" />
        </mxCell>
        <mxCell id="XbP6ayfyLxGD-Mf_w_qg-27" value="+ method(type): type" style="text;strokeColor=none;fillColor=none;align=left;verticalAlign=top;spacingLeft=4;spacingRight=4;overflow=hidden;rotatable=0;points=[[0,0.5],[1,0.5]];portConstraint=eastwest;whiteSpace=wrap;html=1;" vertex="1" parent="XbP6ayfyLxGD-Mf_w_qg-24">
          <mxGeometry y="148" width="160" height="26" as="geometry" />
        </mxCell>
        <mxCell id="XbP6ayfyLxGD-Mf_w_qg-28" value="Centre de Sante" style="swimlane;fontStyle=1;align=center;verticalAlign=top;childLayout=stackLayout;horizontal=1;startSize=26;horizontalStack=0;resizeParent=1;resizeParentMax=0;resizeLast=0;collapsible=1;marginBottom=0;whiteSpace=wrap;html=1;" vertex="1" parent="WIyWlLk6GJQsqaUBKTNV-1">
          <mxGeometry x="190" y="663" width="160" height="86" as="geometry" />
        </mxCell>
        <mxCell id="XbP6ayfyLxGD-Mf_w_qg-29" value="+ field: type" style="text;strokeColor=none;fillColor=none;align=left;verticalAlign=top;spacingLeft=4;spacingRight=4;overflow=hidden;rotatable=0;points=[[0,0.5],[1,0.5]];portConstraint=eastwest;whiteSpace=wrap;html=1;" vertex="1" parent="XbP6ayfyLxGD-Mf_w_qg-28">
          <mxGeometry y="26" width="160" height="26" as="geometry" />
        </mxCell>
        <mxCell id="XbP6ayfyLxGD-Mf_w_qg-30" value="" style="line;strokeWidth=1;fillColor=none;align=left;verticalAlign=middle;spacingTop=-1;spacingLeft=3;spacingRight=3;rotatable=0;labelPosition=right;points=[];portConstraint=eastwest;strokeColor=inherit;" vertex="1" parent="XbP6ayfyLxGD-Mf_w_qg-28">
          <mxGeometry y="52" width="160" height="8" as="geometry" />
        </mxCell>
        <mxCell id="XbP6ayfyLxGD-Mf_w_qg-31" value="+ method(type): type" style="text;strokeColor=none;fillColor=none;align=left;verticalAlign=top;spacingLeft=4;spacingRight=4;overflow=hidden;rotatable=0;points=[[0,0.5],[1,0.5]];portConstraint=eastwest;whiteSpace=wrap;html=1;" vertex="1" parent="XbP6ayfyLxGD-Mf_w_qg-28">
          <mxGeometry y="60" width="160" height="26" as="geometry" />
        </mxCell>
        <mxCell id="XbP6ayfyLxGD-Mf_w_qg-32" value="" style="edgeStyle=entityRelationEdgeStyle;fontSize=12;html=1;endArrow=ERoneToMany;rounded=0;entryX=0;entryY=0.5;entryDx=0;entryDy=0;exitX=0.991;exitY=0.115;exitDx=0;exitDy=0;exitPerimeter=0;" edge="1" parent="WIyWlLk6GJQsqaUBKTNV-1" source="XbP6ayfyLxGD-Mf_w_qg-36" target="XbP6ayfyLxGD-Mf_w_qg-7">
          <mxGeometry width="100" height="100" relative="1" as="geometry">
            <mxPoint x="390" y="374" as="sourcePoint" />
            <mxPoint x="410" y="397" as="targetPoint" />
          </mxGeometry>
        </mxCell>
        <mxCell id="XbP6ayfyLxGD-Mf_w_qg-33" value="Assistant Medical" style="swimlane;fontStyle=1;align=center;verticalAlign=top;childLayout=stackLayout;horizontal=1;startSize=26;horizontalStack=0;resizeParent=1;resizeParentMax=0;resizeLast=0;collapsible=1;marginBottom=0;whiteSpace=wrap;html=1;" vertex="1" parent="WIyWlLk6GJQsqaUBKTNV-1">
          <mxGeometry x="290" y="470" width="190" height="114" as="geometry" />
        </mxCell>
        <mxCell id="XbP6ayfyLxGD-Mf_w_qg-34" value="+ Num_assistant:numeric&lt;br&gt;+&lt;br&gt;+ Messagerie_Assistant:" style="text;strokeColor=none;fillColor=none;align=left;verticalAlign=top;spacingLeft=4;spacingRight=4;overflow=hidden;rotatable=0;points=[[0,0.5],[1,0.5]];portConstraint=eastwest;whiteSpace=wrap;html=1;" vertex="1" parent="XbP6ayfyLxGD-Mf_w_qg-33">
          <mxGeometry y="26" width="190" height="54" as="geometry" />
        </mxCell>
        <mxCell id="XbP6ayfyLxGD-Mf_w_qg-35" value="" style="line;strokeWidth=1;fillColor=none;align=left;verticalAlign=middle;spacingTop=-1;spacingLeft=3;spacingRight=3;rotatable=0;labelPosition=right;points=[];portConstraint=eastwest;strokeColor=inherit;" vertex="1" parent="XbP6ayfyLxGD-Mf_w_qg-33">
          <mxGeometry y="80" width="190" height="8" as="geometry" />
        </mxCell>
        <mxCell id="XbP6ayfyLxGD-Mf_w_qg-36" value="+ method(type): type" style="text;strokeColor=none;fillColor=none;align=left;verticalAlign=top;spacingLeft=4;spacingRight=4;overflow=hidden;rotatable=0;points=[[0,0.5],[1,0.5]];portConstraint=eastwest;whiteSpace=wrap;html=1;" vertex="1" parent="XbP6ayfyLxGD-Mf_w_qg-33">
          <mxGeometry y="88" width="190" height="26" as="geometry" />
        </mxCell>
        <mxCell id="XbP6ayfyLxGD-Mf_w_qg-37" value="" style="edgeStyle=entityRelationEdgeStyle;fontSize=12;html=1;endArrow=ERzeroToOne;endFill=1;rounded=0;exitX=1;exitY=0.5;exitDx=0;exitDy=0;entryX=-0.025;entryY=0.846;entryDx=0;entryDy=0;entryPerimeter=0;" edge="1" parent="WIyWlLk6GJQsqaUBKTNV-1" source="XbP6ayfyLxGD-Mf_w_qg-34" target="XbP6ayfyLxGD-Mf_w_qg-23">
          <mxGeometry width="100" height="100" relative="1" as="geometry">
            <mxPoint x="380" y="367" as="sourcePoint" />
            <mxPoint x="420" y="257" as="targetPoint" />
          </mxGeometry>
        </mxCell>
        <mxCell id="XbP6ayfyLxGD-Mf_w_qg-38" value="" style="edgeStyle=entityRelationEdgeStyle;fontSize=12;html=1;endArrow=ERoneToMany;startArrow=ERoneToMany;rounded=0;entryX=-0.001;entryY=0.854;entryDx=0;entryDy=0;entryPerimeter=0;exitX=1;exitY=0.5;exitDx=0;exitDy=0;" edge="1" parent="WIyWlLk6GJQsqaUBKTNV-1" source="XbP6ayfyLxGD-Mf_w_qg-25" target="XbP6ayfyLxGD-Mf_w_qg-34">
          <mxGeometry width="100" height="100" relative="1" as="geometry">
            <mxPoint x="160" y="577" as="sourcePoint" />
            <mxPoint x="170" y="367" as="targetPoint" />
            <Array as="points">
              <mxPoint x="220" y="607" />
            </Array>
          </mxGeometry>
        </mxCell>
        <mxCell id="XbP6ayfyLxGD-Mf_w_qg-39" value="Rapport Medicaux" style="swimlane;fontStyle=1;align=center;verticalAlign=top;childLayout=stackLayout;horizontal=1;startSize=26;horizontalStack=0;resizeParent=1;resizeParentMax=0;resizeLast=0;collapsible=1;marginBottom=0;whiteSpace=wrap;html=1;" vertex="1" parent="WIyWlLk6GJQsqaUBKTNV-1">
          <mxGeometry x="-303" y="700" width="160" height="86" as="geometry" />
        </mxCell>
        <mxCell id="XbP6ayfyLxGD-Mf_w_qg-40" value="+ field: type" style="text;strokeColor=none;fillColor=none;align=left;verticalAlign=top;spacingLeft=4;spacingRight=4;overflow=hidden;rotatable=0;points=[[0,0.5],[1,0.5]];portConstraint=eastwest;whiteSpace=wrap;html=1;" vertex="1" parent="XbP6ayfyLxGD-Mf_w_qg-39">
          <mxGeometry y="26" width="160" height="26" as="geometry" />
        </mxCell>
        <mxCell id="XbP6ayfyLxGD-Mf_w_qg-41" value="" style="line;strokeWidth=1;fillColor=none;align=left;verticalAlign=middle;spacingTop=-1;spacingLeft=3;spacingRight=3;rotatable=0;labelPosition=right;points=[];portConstraint=eastwest;strokeColor=inherit;" vertex="1" parent="XbP6ayfyLxGD-Mf_w_qg-39">
          <mxGeometry y="52" width="160" height="8" as="geometry" />
        </mxCell>
        <mxCell id="XbP6ayfyLxGD-Mf_w_qg-42" value="+ method(type): type" style="text;strokeColor=none;fillColor=none;align=left;verticalAlign=top;spacingLeft=4;spacingRight=4;overflow=hidden;rotatable=0;points=[[0,0.5],[1,0.5]];portConstraint=eastwest;whiteSpace=wrap;html=1;" vertex="1" parent="XbP6ayfyLxGD-Mf_w_qg-39">
          <mxGeometry y="60" width="160" height="26" as="geometry" />
        </mxCell>
        <mxCell id="XbP6ayfyLxGD-Mf_w_qg-43" value="" style="edgeStyle=entityRelationEdgeStyle;fontSize=12;html=1;endArrow=ERoneToMany;rounded=0;exitX=0.985;exitY=0.962;exitDx=0;exitDy=0;exitPerimeter=0;" edge="1" parent="WIyWlLk6GJQsqaUBKTNV-1" source="XbP6ayfyLxGD-Mf_w_qg-25">
          <mxGeometry width="100" height="100" relative="1" as="geometry">
            <mxPoint x="120" y="509" as="sourcePoint" />
            <mxPoint x="190" y="707" as="targetPoint" />
            <Array as="points">
              <mxPoint x="60" y="537" />
            </Array>
          </mxGeometry>
        </mxCell>
        <mxCell id="XbP6ayfyLxGD-Mf_w_qg-44" value="" style="edgeStyle=entityRelationEdgeStyle;fontSize=12;html=1;endArrow=ERzeroToMany;endFill=1;rounded=0;exitX=1;exitY=0.5;exitDx=0;exitDy=0;entryX=0;entryY=0.25;entryDx=0;entryDy=0;" edge="1" parent="WIyWlLk6GJQsqaUBKTNV-1" source="XbP6ayfyLxGD-Mf_w_qg-36" target="XbP6ayfyLxGD-Mf_w_qg-8">
          <mxGeometry width="100" height="100" relative="1" as="geometry">
            <mxPoint x="216.55999999999995" y="427.00199999999995" as="sourcePoint" />
            <mxPoint x="830" y="612.01" as="targetPoint" />
            <Array as="points">
              <mxPoint x="390" y="527" />
              <mxPoint x="410" y="527" />
              <mxPoint x="290" y="377" />
              <mxPoint x="430" y="576.01" />
              <mxPoint x="430" y="536.01" />
            </Array>
          </mxGeometry>
        </mxCell>
        <mxCell id="XbP6ayfyLxGD-Mf_w_qg-45" value="" style="edgeStyle=entityRelationEdgeStyle;fontSize=12;html=1;endArrow=ERmany;startArrow=ERmany;rounded=0;entryX=0;entryY=0.5;entryDx=0;entryDy=0;exitX=1;exitY=0.5;exitDx=0;exitDy=0;" edge="1" parent="WIyWlLk6GJQsqaUBKTNV-1" target="XbP6ayfyLxGD-Mf_w_qg-27">
          <mxGeometry width="100" height="100" relative="1" as="geometry">
            <mxPoint x="-260" y="400" as="sourcePoint" />
            <mxPoint x="-130" y="538" as="targetPoint" />
          </mxGeometry>
        </mxCell>
        <mxCell id="XbP6ayfyLxGD-Mf_w_qg-46" value="" style="edgeStyle=entityRelationEdgeStyle;fontSize=12;html=1;endArrow=ERzeroToOne;endFill=1;rounded=0;entryX=0;entryY=0.116;entryDx=0;entryDy=0;entryPerimeter=0;exitX=1;exitY=0.654;exitDx=0;exitDy=0;exitPerimeter=0;" edge="1" parent="WIyWlLk6GJQsqaUBKTNV-1" source="XbP6ayfyLxGD-Mf_w_qg-17" target="XbP6ayfyLxGD-Mf_w_qg-20">
          <mxGeometry width="100" height="100" relative="1" as="geometry">
            <mxPoint x="360" y="307" as="sourcePoint" />
            <mxPoint x="460" y="207" as="targetPoint" />
          </mxGeometry>
        </mxCell>
        <mxCell id="XbP6ayfyLxGD-Mf_w_qg-47" value="" style="edgeStyle=entityRelationEdgeStyle;fontSize=12;html=1;endArrow=ERoneToMany;rounded=0;exitX=1;exitY=0.5;exitDx=0;exitDy=0;" edge="1" parent="WIyWlLk6GJQsqaUBKTNV-1" source="XbP6ayfyLxGD-Mf_w_qg-27">
          <mxGeometry width="100" height="100" relative="1" as="geometry">
            <mxPoint x="-403" y="813" as="sourcePoint" />
            <mxPoint x="-303" y="713" as="targetPoint" />
            <Array as="points">
              <mxPoint x="-390" y="607" />
            </Array>
          </mxGeometry>
        </mxCell>
        <mxCell id="XbP6ayfyLxGD-Mf_w_qg-48" value="" style="edgeStyle=entityRelationEdgeStyle;fontSize=12;html=1;endArrow=ERoneToMany;rounded=0;entryX=1.033;entryY=0.246;entryDx=0;entryDy=0;entryPerimeter=0;" edge="1" parent="WIyWlLk6GJQsqaUBKTNV-1" target="XbP6ayfyLxGD-Mf_w_qg-1">
          <mxGeometry width="100" height="100" relative="1" as="geometry">
            <mxPoint x="710" y="280" as="sourcePoint" />
            <mxPoint x="20" y="40" as="targetPoint" />
          </mxGeometry>
        </mxCell>
        <mxCell id="XbP6ayfyLxGD-Mf_w_qg-49" value="" style="edgeStyle=entityRelationEdgeStyle;fontSize=12;html=1;endArrow=ERoneToMany;rounded=0;exitX=0.25;exitY=0;exitDx=0;exitDy=0;" edge="1" parent="WIyWlLk6GJQsqaUBKTNV-1" source="XbP6ayfyLxGD-Mf_w_qg-24">
          <mxGeometry width="100" height="100" relative="1" as="geometry">
            <mxPoint x="-180" y="290" as="sourcePoint" />
            <mxPoint y="190" as="targetPoint" />
          </mxGeometry>
        </mxCell>
        <mxCell id="XbP6ayfyLxGD-Mf_w_qg-50" value="Examen Medical" style="swimlane;fontStyle=1;align=center;verticalAlign=top;childLayout=stackLayout;horizontal=1;startSize=26;horizontalStack=0;resizeParent=1;resizeParentMax=0;resizeLast=0;collapsible=1;marginBottom=0;whiteSpace=wrap;html=1;" vertex="1" parent="WIyWlLk6GJQsqaUBKTNV-1">
          <mxGeometry x="90" y="350" width="160" height="86" as="geometry" />
        </mxCell>
        <mxCell id="XbP6ayfyLxGD-Mf_w_qg-51" value="+ field: type" style="text;strokeColor=none;fillColor=none;align=left;verticalAlign=top;spacingLeft=4;spacingRight=4;overflow=hidden;rotatable=0;points=[[0,0.5],[1,0.5]];portConstraint=eastwest;whiteSpace=wrap;html=1;" vertex="1" parent="XbP6ayfyLxGD-Mf_w_qg-50">
          <mxGeometry y="26" width="160" height="26" as="geometry" />
        </mxCell>
        <mxCell id="XbP6ayfyLxGD-Mf_w_qg-52" value="" style="line;strokeWidth=1;fillColor=none;align=left;verticalAlign=middle;spacingTop=-1;spacingLeft=3;spacingRight=3;rotatable=0;labelPosition=right;points=[];portConstraint=eastwest;strokeColor=inherit;" vertex="1" parent="XbP6ayfyLxGD-Mf_w_qg-50">
          <mxGeometry y="52" width="160" height="8" as="geometry" />
        </mxCell>
        <mxCell id="XbP6ayfyLxGD-Mf_w_qg-53" value="+ method(type): type" style="text;strokeColor=none;fillColor=none;align=left;verticalAlign=top;spacingLeft=4;spacingRight=4;overflow=hidden;rotatable=0;points=[[0,0.5],[1,0.5]];portConstraint=eastwest;whiteSpace=wrap;html=1;" vertex="1" parent="XbP6ayfyLxGD-Mf_w_qg-50">
          <mxGeometry y="60" width="160" height="26" as="geometry" />
        </mxCell>
        <mxCell id="XbP6ayfyLxGD-Mf_w_qg-54" value="" style="edgeStyle=entityRelationEdgeStyle;fontSize=12;html=1;endArrow=ERzeroToMany;endFill=1;rounded=0;exitX=1.04;exitY=0.119;exitDx=0;exitDy=0;exitPerimeter=0;entryX=0;entryY=0.14;entryDx=0;entryDy=0;entryPerimeter=0;" edge="1" parent="WIyWlLk6GJQsqaUBKTNV-1" target="XbP6ayfyLxGD-Mf_w_qg-50">
          <mxGeometry width="100" height="100" relative="1" as="geometry">
            <mxPoint x="19.999999999999858" y="480.23400000000015" as="sourcePoint" />
            <mxPoint x="63.599999999999994" y="380" as="targetPoint" />
          </mxGeometry>
        </mxCell>
        <mxCell id="XbP6ayfyLxGD-Mf_w_qg-55" value="" style="edgeStyle=entityRelationEdgeStyle;fontSize=12;html=1;endArrow=ERzeroToMany;endFill=1;rounded=0;exitX=0;exitY=0.5;exitDx=0;exitDy=0;entryX=1;entryY=0.5;entryDx=0;entryDy=0;" edge="1" parent="WIyWlLk6GJQsqaUBKTNV-1" source="XbP6ayfyLxGD-Mf_w_qg-19" target="XbP6ayfyLxGD-Mf_w_qg-53">
          <mxGeometry width="100" height="100" relative="1" as="geometry">
            <mxPoint x="160" y="470" as="sourcePoint" />
            <mxPoint x="260" y="370" as="targetPoint" />
          </mxGeometry>
        </mxCell>
      </root>
    </mxGraphModel>
  </diagram>
</mxfile>
